<mxfile host="65bd71144e">
    <diagram name="Page-1" id="SpvS7zHhFayls-LQYYzU">
        <mxGraphModel dx="746" dy="1668" grid="1" gridSize="10" guides="1" tooltips="1" connect="1" arrows="1" fold="1" page="1" pageScale="1" pageWidth="850" pageHeight="1100" math="0" shadow="0">
            <root>
                <mxCell id="0"/>
                <mxCell id="1" parent="0"/>
                <mxCell id="23" style="edgeStyle=none;html=1;" parent="1" source="s28vENOtk9-loVWUO0QG-1" edge="1">
                    <mxGeometry relative="1" as="geometry">
                        <mxPoint x="530" y="40.33333333333326" as="targetPoint"/>
                    </mxGeometry>
                </mxCell>
                <mxCell id="s28vENOtk9-loVWUO0QG-1" value="" style="swimlane;startSize=0;" parent="1" vertex="1">
                    <mxGeometry x="280" y="40" width="250" height="400" as="geometry"/>
                </mxCell>
                <mxCell id="s28vENOtk9-loVWUO0QG-6" value="" style="rounded=1;whiteSpace=wrap;html=1;" parent="s28vENOtk9-loVWUO0QG-1" vertex="1">
                    <mxGeometry x="10" y="160" width="50" height="20" as="geometry"/>
                </mxCell>
                <mxCell id="s28vENOtk9-loVWUO0QG-9" value="" style="rounded=1;whiteSpace=wrap;html=1;" parent="s28vENOtk9-loVWUO0QG-1" vertex="1">
                    <mxGeometry x="150" y="120" width="20" height="20" as="geometry"/>
                </mxCell>
                <mxCell id="s28vENOtk9-loVWUO0QG-12" value="" style="rounded=1;whiteSpace=wrap;html=1;" parent="s28vENOtk9-loVWUO0QG-1" vertex="1">
                    <mxGeometry x="10" y="370" width="40" height="20" as="geometry"/>
                </mxCell>
                <mxCell id="4" value="PIXHAWK" style="text;html=1;strokeColor=none;fillColor=none;align=center;verticalAlign=middle;whiteSpace=wrap;rounded=0;" parent="s28vENOtk9-loVWUO0QG-1" vertex="1">
                    <mxGeometry x="90" y="30" width="60" height="30" as="geometry"/>
                </mxCell>
                <mxCell id="s28vENOtk9-loVWUO0QG-2" value="" style="swimlane;startSize=0;" parent="1" vertex="1">
                    <mxGeometry x="380" y="200" width="40" height="10" as="geometry"/>
                </mxCell>
                <mxCell id="s28vENOtk9-loVWUO0QG-5" value="Switch (1)" style="text;html=1;strokeColor=none;fillColor=none;align=center;verticalAlign=middle;whiteSpace=wrap;rounded=0;" parent="1" vertex="1">
                    <mxGeometry x="590" y="320" width="60" height="30" as="geometry"/>
                </mxCell>
                <mxCell id="s28vENOtk9-loVWUO0QG-7" value="3DR Radio with 6-wire cable" style="endArrow=classic;html=1;rounded=0;exitX=0;exitY=0.5;exitDx=0;exitDy=0;" parent="1" source="s28vENOtk9-loVWUO0QG-6" target="s28vENOtk9-loVWUO0QG-8" edge="1">
                    <mxGeometry width="50" height="50" relative="1" as="geometry">
                        <mxPoint x="420" y="300" as="sourcePoint"/>
                        <mxPoint x="140" y="210" as="targetPoint"/>
                    </mxGeometry>
                </mxCell>
                <mxCell id="s28vENOtk9-loVWUO0QG-8" value="telem2" style="text;html=1;strokeColor=none;fillColor=none;align=center;verticalAlign=middle;whiteSpace=wrap;rounded=0;" parent="1" vertex="1">
                    <mxGeometry x="60" y="180" width="60" height="30" as="geometry"/>
                </mxCell>
                <mxCell id="s28vENOtk9-loVWUO0QG-10" value="Buzzer" style="endArrow=classic;html=1;rounded=0;exitX=1;exitY=0.5;exitDx=0;exitDy=0;" parent="1" source="s28vENOtk9-loVWUO0QG-9" target="s28vENOtk9-loVWUO0QG-11" edge="1">
                    <mxGeometry width="50" height="50" relative="1" as="geometry">
                        <mxPoint x="400" y="250" as="sourcePoint"/>
                        <mxPoint x="570" y="100" as="targetPoint"/>
                    </mxGeometry>
                </mxCell>
                <mxCell id="s28vENOtk9-loVWUO0QG-11" value="Buzzer (3)" style="text;html=1;strokeColor=none;fillColor=none;align=center;verticalAlign=middle;whiteSpace=wrap;rounded=0;" parent="1" vertex="1">
                    <mxGeometry x="540" y="84.99999999999994" width="60" height="30" as="geometry"/>
                </mxCell>
                <mxCell id="s28vENOtk9-loVWUO0QG-13" value="" style="endArrow=classic;html=1;rounded=0;exitX=0.5;exitY=1;exitDx=0;exitDy=0;" parent="1" source="s28vENOtk9-loVWUO0QG-12" target="s28vENOtk9-loVWUO0QG-14" edge="1">
                    <mxGeometry width="50" height="50" relative="1" as="geometry">
                        <mxPoint x="400" y="550" as="sourcePoint"/>
                        <mxPoint x="340" y="550" as="targetPoint"/>
                    </mxGeometry>
                </mxCell>
                <mxCell id="s28vENOtk9-loVWUO0QG-14" value="Power (4)" style="text;html=1;strokeColor=none;fillColor=none;align=center;verticalAlign=middle;whiteSpace=wrap;rounded=0;" parent="1" vertex="1">
                    <mxGeometry x="310" y="535" width="60" height="30" as="geometry"/>
                </mxCell>
                <mxCell id="2" value="PX4 autopilot safety botton flight controller switch&amp;nbsp;" style="endArrow=classic;html=1;exitX=1;exitY=0.5;exitDx=0;exitDy=0;entryX=0;entryY=0.5;entryDx=0;entryDy=0;" parent="1" source="s28vENOtk9-loVWUO0QG-2" target="s28vENOtk9-loVWUO0QG-5" edge="1">
                    <mxGeometry width="50" height="50" relative="1" as="geometry">
                        <mxPoint x="380" y="390" as="sourcePoint"/>
                        <mxPoint x="430" y="340" as="targetPoint"/>
                    </mxGeometry>
                </mxCell>
                <mxCell id="3" value="Text" style="text;html=1;strokeColor=none;fillColor=none;align=center;verticalAlign=middle;whiteSpace=wrap;rounded=0;" parent="1" vertex="1">
                    <mxGeometry x="370" y="220" width="60" height="30" as="geometry"/>
                </mxCell>
                <mxCell id="7" value="" style="endArrow=classic;html=1;exitX=0.5;exitY=1;exitDx=0;exitDy=0;" parent="1" source="5" target="8" edge="1">
                    <mxGeometry width="50" height="50" relative="1" as="geometry">
                        <mxPoint x="520" y="160" as="sourcePoint"/>
                        <mxPoint x="640" y="90" as="targetPoint"/>
                    </mxGeometry>
                </mxCell>
                <mxCell id="8" value="Receiver" style="text;html=1;strokeColor=none;fillColor=none;align=center;verticalAlign=middle;whiteSpace=wrap;rounded=0;" parent="1" vertex="1">
                    <mxGeometry x="610" y="75" width="60" height="30" as="geometry"/>
                </mxCell>
                <mxCell id="10" value="" style="line;strokeWidth=2;html=1;" parent="1" vertex="1">
                    <mxGeometry x="310" width="230" height="10" as="geometry"/>
                </mxCell>
                <mxCell id="14" value="" style="endArrow=none;html=1;exitX=0;exitY=0;exitDx=0;exitDy=0;entryX=0;entryY=0.5;entryDx=0;entryDy=0;entryPerimeter=0;" parent="1" source="s28vENOtk9-loVWUO0QG-1" target="10" edge="1">
                    <mxGeometry width="50" height="50" relative="1" as="geometry">
                        <mxPoint x="430" y="90" as="sourcePoint"/>
                        <mxPoint x="480" y="40" as="targetPoint"/>
                    </mxGeometry>
                </mxCell>
                <mxCell id="15" value="" style="endArrow=none;html=1;entryX=1;entryY=0.5;entryDx=0;entryDy=0;entryPerimeter=0;exitX=1;exitY=0;exitDx=0;exitDy=0;" parent="1" source="s28vENOtk9-loVWUO0QG-1" target="10" edge="1">
                    <mxGeometry width="50" height="50" relative="1" as="geometry">
                        <mxPoint x="430" y="90" as="sourcePoint"/>
                        <mxPoint x="480" y="40" as="targetPoint"/>
                    </mxGeometry>
                </mxCell>
                <mxCell id="5" value="" style="rounded=1;whiteSpace=wrap;html=1;rotation=-75;" parent="1" vertex="1">
                    <mxGeometry x="510" y="17.97" width="30" height="7.71" as="geometry"/>
                </mxCell>
                <mxCell id="16" value="Main Out" style="endArrow=classic;startArrow=classic;html=1;exitX=0.907;exitY=0;exitDx=0;exitDy=0;exitPerimeter=0;entryX=0.412;entryY=0;entryDx=0;entryDy=0;entryPerimeter=0;" parent="1" source="s28vENOtk9-loVWUO0QG-1" target="s28vENOtk9-loVWUO0QG-1" edge="1">
                    <mxGeometry width="50" height="50" relative="1" as="geometry">
                        <mxPoint x="430" y="140" as="sourcePoint"/>
                        <mxPoint x="480" y="90" as="targetPoint"/>
                        <Array as="points">
                            <mxPoint x="440" y="50"/>
                        </Array>
                    </mxGeometry>
                </mxCell>
                <mxCell id="17" value="Aux Out" style="endArrow=classic;startArrow=classic;html=1;exitX=0;exitY=0;exitDx=0;exitDy=0;" parent="1" source="s28vENOtk9-loVWUO0QG-1" edge="1">
                    <mxGeometry width="50" height="50" relative="1" as="geometry">
                        <mxPoint x="430" y="140" as="sourcePoint"/>
                        <mxPoint x="380" y="40" as="targetPoint"/>
                        <Array as="points">
                            <mxPoint x="330" y="50"/>
                        </Array>
                    </mxGeometry>
                </mxCell>
                <mxCell id="18" value="" style="endArrow=none;html=1;entryX=0.394;entryY=0.42;entryDx=0;entryDy=0;entryPerimeter=0;" parent="1" target="10" edge="1">
                    <mxGeometry width="50" height="50" relative="1" as="geometry">
                        <mxPoint x="380" y="40" as="sourcePoint"/>
                        <mxPoint x="480" y="90" as="targetPoint"/>
                    </mxGeometry>
                </mxCell>
                <mxCell id="19" value="" style="rounded=1;whiteSpace=wrap;html=1;rotation=-90;" parent="1" vertex="1">
                    <mxGeometry x="411.13" y="0.69" width="20" height="42.27" as="geometry"/>
                </mxCell>
                <mxCell id="20" value="" style="endArrow=classic;html=1;exitX=1;exitY=0.5;exitDx=0;exitDy=0;" parent="1" source="19" target="21" edge="1">
                    <mxGeometry width="50" height="50" relative="1" as="geometry">
                        <mxPoint x="430" y="140" as="sourcePoint"/>
                        <mxPoint x="490" y="-50" as="targetPoint"/>
                    </mxGeometry>
                </mxCell>
                <mxCell id="21" value="ESC" style="text;html=1;strokeColor=none;fillColor=none;align=center;verticalAlign=middle;whiteSpace=wrap;rounded=0;" parent="1" vertex="1">
                    <mxGeometry x="500" y="-90" width="60" height="30" as="geometry"/>
                </mxCell>
                <mxCell id="22" value="RCIN" style="text;html=1;strokeColor=none;fillColor=none;align=center;verticalAlign=middle;whiteSpace=wrap;rounded=0;rotation=0;" parent="1" vertex="1">
                    <mxGeometry x="580" y="-30" width="60" height="15" as="geometry"/>
                </mxCell>
                <mxCell id="24" value="" style="endArrow=classic;html=1;exitX=1;exitY=0.75;exitDx=0;exitDy=0;entryX=0.25;entryY=1;entryDx=0;entryDy=0;" parent="1" source="5" target="22" edge="1">
                    <mxGeometry width="50" height="50" relative="1" as="geometry">
                        <mxPoint x="430" y="60" as="sourcePoint"/>
                        <mxPoint x="480" y="10" as="targetPoint"/>
                    </mxGeometry>
                </mxCell>
                <mxCell id="25" value="XT60 connectors" style="endArrow=classic;html=1;exitX=1;exitY=0.5;exitDx=0;exitDy=0;" parent="1" source="21" edge="1">
                    <mxGeometry width="50" height="50" relative="1" as="geometry">
                        <mxPoint x="460" y="10" as="sourcePoint"/>
                        <mxPoint x="720" y="-80" as="targetPoint"/>
                    </mxGeometry>
                </mxCell>
                <mxCell id="26" value="Power Module" style="text;html=1;strokeColor=none;fillColor=none;align=center;verticalAlign=middle;whiteSpace=wrap;rounded=0;" parent="1" vertex="1">
                    <mxGeometry x="720" y="-90" width="60" height="30" as="geometry"/>
                </mxCell>
                <mxCell id="27" value="OBS:&lt;br&gt;No fio conectado ao TELEM 2, o conector que vai na PX possui os fios vermelhos conectados ao fio vermlho do conector que vai na RASP, enquanto que os fios pretos do conector da PX estão atrelados ao fio amarelo do conector da RASP&amp;nbsp;" style="text;html=1;strokeColor=none;fillColor=none;align=center;verticalAlign=middle;whiteSpace=wrap;rounded=0;" vertex="1" parent="1">
                    <mxGeometry x="180" y="630" width="480" height="30" as="geometry"/>
                </mxCell>
            </root>
        </mxGraphModel>
    </diagram>
</mxfile>